<svg xmlns="http://www.w3.org/2000/svg" width="20" height="20" viewBox="0 0 20 20" fill="none">
  <path d="M3.33334 4.99935C3.33334 4.53911 3.70643 4.16602 4.16667 4.16602H15.8333C16.2936 4.16602 16.6667 4.53911 16.6667 4.99935C16.6667 5.45959 16.2936 5.83268 15.8333 5.83268H4.16667C3.70643 5.83268 3.33334 5.45959 3.33334 4.99935Z" fill="#667185"/>
  <path d="M5 9.99935C5 9.53911 5.3731 9.16602 5.83334 9.16602H14.1667C14.6269 9.16602 15 9.53911 15 9.99935C15 10.4596 14.6269 10.8327 14.1667 10.8327H5.83334C5.3731 10.8327 5 10.4596 5 9.99935Z" fill="#667185"/>
  <path d="M7.5 14.166C7.03977 14.166 6.66667 14.5391 6.66667 14.9993C6.66667 15.4596 7.03977 15.8327 7.5 15.8327H12.5C12.9602 15.8327 13.3333 15.4596 13.3333 14.9993C13.3333 14.5391 12.9602 14.166 12.5 14.166H7.5Z" fill="#667185"/>
</svg>