<svg xmlns="http://www.w3.org/2000/svg" width="20" height="20" viewBox="0 0 20 20" fill="none">
  <path fill-rule="evenodd" clip-rule="evenodd" d="M9.16667 1.66602C5.02454 1.66602 1.66667 5.02388 1.66667 9.16602C1.66667 13.3082 5.02454 16.666 9.16667 16.666C10.9375 16.666 12.565 16.0523 13.8481 15.0259L16.9107 18.0886C17.2362 18.414 17.7638 18.414 18.0893 18.0886C18.4147 17.7632 18.4147 17.2355 18.0893 16.9101L15.0266 13.8474C16.0529 12.5644 16.6667 10.9369 16.6667 9.16602C16.6667 5.02388 13.3088 1.66602 9.16667 1.66602ZM3.33334 9.16602C3.33334 5.94436 5.94501 3.33268 9.16667 3.33268C12.3883 3.33268 15 5.94436 15 9.16602C15 12.3877 12.3883 14.9993 9.16667 14.9993C5.94501 14.9993 3.33334 12.3877 3.33334 9.16602Z" fill="#667185"/>
</svg>